<svg id="icon-successfulTrader" xmlns="http://www.w3.org/2000/svg" xmlns:xlink="http://www.w3.org/1999/xlink" width="40" height="40" viewBox="0 0 40 40">
  <defs>
    <linearGradient id="linear-gradient" x1="0.5" x2="0.5" y2="1" gradientUnits="objectBoundingBox">
      <stop offset="0" stop-color="#a0762f"/>
      <stop offset="0.506" stop-color="#dec481"/>
      <stop offset="1" stop-color="#a0762f"/>
    </linearGradient>
  </defs>
  <g id="Rectangle_32779" data-name="Rectangle 32779" fill="#fff" stroke="#707070" stroke-width="1" opacity="0">
    <rect width="40" height="40" stroke="none"/>
    <rect x="0.5" y="0.5" width="39" height="39" fill="none"/>
  </g>
  <g id="Group_30542" data-name="Group 30542" transform="translate(2.021 2.019)">
    <g id="Group_8043" data-name="Group 8043" transform="translate(0 0)">
      <path id="Path_14623" data-name="Path 14623" d="M186.751,84.315v-.021l0-.016a17.4,17.4,0,0,0-1.694-6.857,6.032,6.032,0,1,0-8.531-8.522,17.413,17.413,0,0,0-6.528-1.658c-.3-.031-.609-.04-.915-.043-.036,0-.072-.012-.109-.012s-.046.007-.07.007c-.114,0-.228-.006-.341,0a18.052,18.052,0,0,0-8.584,2.468A17.39,17.39,0,0,0,151.2,84.336l-.013.589c0,.018,0,.034,0,.051s0,.033,0,.051l.013.577v.061l0,.019a17.623,17.623,0,0,0,1.689,6.842,6.033,6.033,0,1,0,8.534,8.521,17.492,17.492,0,0,0,6.489,1.658c.175.018.353.021.529.03s.325.03.487.03h.007l.031,0c.043,0,.085-.013.129-.015a17.943,17.943,0,0,0,8.889-2.462,17.63,17.63,0,0,0,8.763-14.668l.013-.644-.013-.623ZM175.183,96.16a27.24,27.24,0,0,0,1.054-3.919,27.221,27.221,0,0,0,3.874-1.039,18.557,18.557,0,0,1-1.388,3.53A18.917,18.917,0,0,1,175.183,96.16Zm-12.42-22.38a27.136,27.136,0,0,0-1.057,3.929,27.433,27.433,0,0,0-3.871,1.038,18.688,18.688,0,0,1,1.393-3.537A18.949,18.949,0,0,1,162.763,73.78Zm19.358,10.634a23.256,23.256,0,0,0-.4-3.771c2.152,1.05,3.551,2.357,3.849,3.771Zm-5.223,0a38.848,38.848,0,0,0-.452-5.5,25.313,25.313,0,0,1,4.039,1.186,21.949,21.949,0,0,1,.514,4.31Zm-3.05,12.061a21.852,21.852,0,0,1-4.316.518V92.9a38.91,38.91,0,0,0,5.5-.452A25.234,25.234,0,0,1,173.847,96.474Zm-5.439,5.1c-1.417-.3-2.725-1.7-3.777-3.861a23.12,23.12,0,0,0,3.777.407Zm1.123-9.792V85.537h6.243a36.907,36.907,0,0,1-.514,5.728A36.922,36.922,0,0,1,169.532,91.778Zm0-7.365V78.172a37.109,37.109,0,0,1,5.729.514,36.941,36.941,0,0,1,.514,5.728ZM164.1,73.465a21.8,21.8,0,0,1,4.31-.515v4.1a38.656,38.656,0,0,0-5.5.454A25.454,25.454,0,0,1,164.1,73.465ZM177.4,77.958c-.379-.09-.771-.171-1.167-.247-.078-.4-.159-.789-.249-1.168A6.1,6.1,0,0,0,177.4,77.958Zm-7.872-5.006a22.137,22.137,0,0,1,4.313.515A25.389,25.389,0,0,1,175.03,77.5a38.681,38.681,0,0,0-5.5-.454Zm0-1.122V68.38c1.417.3,2.725,1.7,3.775,3.855A23.242,23.242,0,0,0,169.532,71.83Zm-1.123,6.342v6.242h-6.24a36.945,36.945,0,0,1,.514-5.728A37.086,37.086,0,0,1,168.408,78.172Zm13.042,1.1c-.019-.078-.042-.153-.061-.231a5.984,5.984,0,0,0,1.739-.388,10.943,10.943,0,0,1,1.742,2.718A12.778,12.778,0,0,0,181.45,79.272Zm-6.546-6.71c-.076-.019-.151-.042-.229-.06a12.785,12.785,0,0,0-2.092-3.414,10.864,10.864,0,0,1,2.71,1.724A5.969,5.969,0,0,0,174.9,72.562Zm-6.5-4.183v3.45a23.276,23.276,0,0,0-3.772.4C165.686,70.078,166.995,68.678,168.408,68.38ZM161.5,78.918a38.854,38.854,0,0,0-.452,5.5h-4.094a21.88,21.88,0,0,1,.515-4.311A25.22,25.22,0,0,1,161.5,78.918Zm-5.67,5.5h-3.452c.3-1.415,1.7-2.724,3.856-3.775A23.212,23.212,0,0,0,155.828,84.413Zm0,1.123a23.031,23.031,0,0,0,.406,3.775c-2.156-1.05-3.56-2.359-3.858-3.775Zm1.638,4.313a21.909,21.909,0,0,1-.515-4.313h4.094a38.9,38.9,0,0,0,.452,5.5A25.267,25.267,0,0,1,157.466,89.849Zm4.7-4.313h6.24v6.242a36.9,36.9,0,0,1-5.726-.514A36.911,36.911,0,0,1,162.168,85.537Zm6.24,7.365v4.09a22.224,22.224,0,0,1-4.313-.515,25.36,25.36,0,0,1-1.183-4.027A38.885,38.885,0,0,0,168.408,92.9Zm-5.367,4.482c.075.019.148.04.222.058a12.856,12.856,0,0,0,2.089,3.416,11.006,11.006,0,0,1-2.7-1.706A6.032,6.032,0,0,0,163.041,97.383Zm6.49,4.187V98.116a23.135,23.135,0,0,0,3.778-.406C172.258,99.868,170.95,101.272,169.532,101.57Zm6.914-10.536a38.888,38.888,0,0,0,.452-5.5H181a21.933,21.933,0,0,1-.515,4.31A25.336,25.336,0,0,1,176.445,91.034Zm5.676-5.5h3.446c-.3,1.415-1.7,2.722-3.85,3.772A23.214,23.214,0,0,0,182.121,85.537ZM163.269,72.5a19.915,19.915,0,0,0-3,.987A12.35,12.35,0,0,1,165.35,69.1,12.831,12.831,0,0,0,163.269,72.5Zm-6.76,6.77a12.852,12.852,0,0,0-3.41,2.08,12.252,12.252,0,0,1,4.437-5.126A20,20,0,0,0,156.509,79.267Zm-1.68,12.022a10.714,10.714,0,0,1-1.734-2.69,12.85,12.85,0,0,0,3.407,2.083c.018.075.04.147.058.223A6.041,6.041,0,0,0,154.829,91.288Zm6.877.952c.076.392.157.78.246,1.158a6.059,6.059,0,0,0-1.4-1.4C160.925,92.084,161.313,92.164,161.706,92.241Zm12.973,5.2a20.263,20.263,0,0,0,2.974-.975,13.515,13.515,0,0,1-4.844,4.15A13.436,13.436,0,0,0,174.678,97.443Zm6.77-6.764a12.817,12.817,0,0,0,3.407-2.088,12.24,12.24,0,0,1-4.4,5.1A20.3,20.3,0,0,0,181.449,90.679ZM180.9,68.49a4.552,4.552,0,1,1-4.551,4.552A4.557,4.557,0,0,1,180.9,68.49Zm-20.363,2.138c.479-.28.975-.511,1.472-.74a15.624,15.624,0,0,0-3.624,4.5,15.464,15.464,0,0,0-4.7,3.87A16.315,16.315,0,0,1,160.541,70.629Zm-3.5,30.828a4.552,4.552,0,1,1,4.551-4.552A4.557,4.557,0,0,1,157.042,101.456Zm20.379-2.137a16.984,16.984,0,0,1-2.1,1.029,14.958,14.958,0,0,0,4.229-4.79,15.482,15.482,0,0,0,4.719-3.879A16.334,16.334,0,0,1,177.422,99.32Z" transform="translate(-150.994 -66.993)" stroke="rgba(0,0,0,0)" stroke-width="1" fill="url(#linear-gradient)"/>
      <path id="Path_14624" data-name="Path 14624" d="M170.012,73.751c-.144-.022-.288.747-.2.812a2.611,2.611,0,0,0,1.244.3c0,.68-.058.612.767.612q.153,0,.189-.049a2.4,2.4,0,0,0,.037-.635,1.389,1.389,0,0,0,1.27-1.453c0-.584-.264-1.179-1.478-1.677a3,3,0,0,1-.677-.352.522.522,0,0,1-.225-.433c0-.768,1.089-.653,1.83-.442.168.048.386-.723.2-.794a2.561,2.561,0,0,0-.759-.144,3.313,3.313,0,0,0-.025-.612c-.019-.043-.078-.064-.18-.064-.876,0-.8-.084-.8.713a1.4,1.4,0,0,0-.41,2.715c.615.323,1.466.443,1.466,1.135C172.266,74.177,170.7,74.094,170.012,73.751Z" transform="translate(-141.645 -66.086)" fill="url(#linear-gradient)"/>
      <path id="Path_14625" data-name="Path 14625" d="M156.5,86.3a1.713,1.713,0,0,1,1.216.5l.794-.792a2.835,2.835,0,0,0-4.657,1h-.867v.735h.7c-.009.093-.028.181-.028.276,0,.057.013.111.018.166h-.69v.737h.833a2.829,2.829,0,0,0,4.528,1.256l-.729-.852a1.71,1.71,0,0,1-2.576-.4h1.367V88.19h-1.613c0-.055-.016-.109-.016-.166a1.686,1.686,0,0,1,.028-.276h1.6v-.735h-1.292A1.715,1.715,0,0,1,156.5,86.3Z" transform="translate(-150.005 -57.943)" fill="url(#linear-gradient)"/>
    </g>
  </g>
</svg>
