<svg id="icon-investPortfolio" xmlns="http://www.w3.org/2000/svg" xmlns:xlink="http://www.w3.org/1999/xlink" width="40" height="40" viewBox="0 0 40 40">
  <defs>
    <linearGradient id="linear-gradient" x1="0.5" x2="0.5" y2="1" gradientUnits="objectBoundingBox">
      <stop offset="0" stop-color="#9f762e"/>
      <stop offset="0.2" stop-color="#fbc678"/>
      <stop offset="0.5" stop-color="#eaca86"/>
      <stop offset="0.8" stop-color="#bb9049"/>
      <stop offset="1" stop-color="#9f762e"/>
    </linearGradient>
    <clipPath id="clip-path">
      <path id="Path_52249" data-name="Path 52249" d="M1.138,25.562H30.643v9.3H1.138Zm0-8.715h29.5V24.4H1.138Zm17.275-2.384A4.609,4.609,0,0,0,20.248,12.2h1.316a.572.572,0,0,1,.569.575v2.911l-12.485,0v-2.9a.569.569,0,0,1,.41-.548,2.956,2.956,0,0,0,.216.808.578.578,0,0,0,.358.3,33.079,33.079,0,0,0,6.741,1.288c.048,0,.1,0,.145,0a2.445,2.445,0,0,0,.893-.17M7.378,10.457a.573.573,0,0,1,.563-.581H9.98c-.015.4-.019.8-.011,1.188a1.728,1.728,0,0,0-1.455,1.717v2.9H7.38ZM20.43,9.877h3.4a.572.572,0,0,1,.564.579v0h0v5.228H23.267v-2.9a1.726,1.726,0,0,0-1.7-1.743H20.43ZM11.215,12.3a21.149,21.149,0,0,1,.117-5.134l1.475-2.517h6.911a4.4,4.4,0,0,1,1.844,2.82l-.406,1.248H19.862a.572.572,0,0,0-.568.576V11.52a3.763,3.763,0,0,1-1.388,1.9,1.213,1.213,0,0,1-.483.067A32.107,32.107,0,0,1,11.215,12.3M21.564,0A.572.572,0,0,0,21,.575V3.485H15.3a.893.893,0,0,0,.483-.779.91.91,0,0,0-.917-.9h-2.75a.909.909,0,0,0-.917.9.89.89,0,0,0,.482.779h-.9V.581A.572.572,0,0,0,10.221,0h0a.572.572,0,0,0-.569.575V4.063a.572.572,0,0,0,.562.582h1.273L10.3,6.669a.6.6,0,0,0-.077.227c-.035.284-.114.982-.175,1.815h-2.1a1.724,1.724,0,0,0-1.7,1.743v5.228H.568A.572.572,0,0,0,0,16.242V35.458a.573.573,0,0,0,.563.558H31.207a.572.572,0,0,0,.569-.56V16.241a.574.574,0,0,0-.562-.555H25.536V10.457a1.725,1.725,0,0,0-1.7-1.743H22.352l.319-.978a.631.631,0,0,0,.028-.184,5,5,0,0,0-1.273-2.9h.138a.572.572,0,0,0,.569-.575V.581A.571.571,0,0,0,21.569,0Z" fill="url(#linear-gradient)"/>
    </clipPath>
  </defs>
  <g id="Rectangle_32780" data-name="Rectangle 32780" fill="#fff" stroke="#707070" stroke-width="1" opacity="0">
    <rect width="40" height="40" stroke="none"/>
    <rect x="0.5" y="0.5" width="39" height="39" fill="none"/>
  </g>
  <g id="Group_30544" data-name="Group 30544" transform="translate(4.113 1.965)">
    <g id="Group_30543" data-name="Group 30543" clip-path="url(#clip-path)">
      <rect id="Rectangle_32781" data-name="Rectangle 32781" width="31.776" height="36.016" transform="translate(0 0)" fill="url(#linear-gradient)"/>
    </g>
  </g>
</svg>
