<svg id="icon-customerService" xmlns="http://www.w3.org/2000/svg" xmlns:xlink="http://www.w3.org/1999/xlink" width="40" height="40" viewBox="0 0 40 40">
  <defs>
    <linearGradient id="linear-gradient" x1="0.5" x2="0.5" y2="1" gradientUnits="objectBoundingBox">
      <stop offset="0" stop-color="#a0762f"/>
      <stop offset="0.158" stop-color="#fdc778"/>
      <stop offset="0.505" stop-color="#ebcb88"/>
      <stop offset="0.854" stop-color="#bb914a"/>
      <stop offset="1" stop-color="#a0762f"/>
    </linearGradient>
  </defs>
  <g id="Rectangle_32782" data-name="Rectangle 32782" fill="#fff" stroke="#707070" stroke-width="1" opacity="0">
    <rect width="40" height="40" stroke="none"/>
    <rect x="0.5" y="0.5" width="39" height="39" fill="none"/>
  </g>
  <g id="customerservice-icon" transform="translate(4.8 2.019)">
    <path id="Path_12842" data-name="Path 12842" d="M558.905,282H547.948V280.77h10.158a11.483,11.483,0,0,0,.691-2.343,10.791,10.791,0,0,0-2.218-8.642,8.95,8.95,0,0,0-7.006-3.02,9.343,9.343,0,0,0-7.418,3.346,9.652,9.652,0,0,0-1.845,8.092l.2.96h-.9a3.55,3.55,0,0,1,0-7.1h0a10.2,10.2,0,0,1,1.593-2.73,10.552,10.552,0,0,1,8.372-3.8,10.277,10.277,0,0,1,7.936,3.445,10.446,10.446,0,0,1,1.838,3.089c.065,0,.134-.008.2-.005a3.55,3.55,0,0,1,.362,7.082,12.719,12.719,0,0,1-.836,2.494Zm.839-8.7a13.209,13.209,0,0,1,.356,4.563,2.32,2.32,0,0,0-.356-4.563Zm-20.544.026a2.32,2.32,0,0,0-.2,4.524A11.383,11.383,0,0,1,539.2,273.33Z" transform="translate(-534.802 -265.535)" fill="url(#linear-gradient)"/>
    <path id="Path_12843" data-name="Path 12843" d="M561.952,303.722h-26.1a1.67,1.67,0,0,1-1.422-.739c-1.724-2.466,1.2-10.574,1.33-10.917,1.151-2.627,3.244-3.361,5.463-4.138.442-.156.893-.314,1.347-.491l.334-.131.278.226a8.688,8.688,0,0,0,11.09-.123l.28-.238.342.134c.469.184.944.348,1.413.513,2.249.784,4.573,1.594,5.72,4.212.14.38,3.069,8.489,1.344,10.953A1.668,1.668,0,0,1,561.952,303.722ZM542.69,288.709c-.356.133-.711.257-1.059.38-2.043.716-3.807,1.335-4.727,3.435-1.359,3.725-2.314,8.538-1.464,9.754a.452.452,0,0,0,.413.213h26.1a.451.451,0,0,0,.413-.213c.851-1.216-.1-6.028-1.478-9.79-.917-2.09-2.8-2.747-4.983-3.509-.372-.129-.746-.26-1.119-.4A9.917,9.917,0,0,1,542.69,288.709Zm5.971-1.243c-4.905,0-7.552-4.5-7.552-8.728a8.451,8.451,0,0,1,1.823-5.439,7.86,7.86,0,0,1,11.459,0,8.454,8.454,0,0,1,1.822,5.439C556.213,282.969,553.567,287.466,548.661,287.466Zm0-15.416a5.992,5.992,0,0,0-4.785,2.038,7.226,7.226,0,0,0-1.537,4.65c0,3.635,2.216,7.5,6.322,7.5s6.322-3.863,6.322-7.5a7.225,7.225,0,0,0-1.536-4.65A5.993,5.993,0,0,0,548.661,272.051Z" transform="translate(-533.889 -267.761)" fill="url(#linear-gradient)"/>
  </g>
</svg>
