<svg id="icon-globalRegulated" xmlns="http://www.w3.org/2000/svg" xmlns:xlink="http://www.w3.org/1999/xlink" width="40" height="40" viewBox="0 0 40 40">
  <defs>
    <linearGradient id="linear-gradient" x1="0.5" x2="0.5" y2="1" gradientUnits="objectBoundingBox">
      <stop offset="0" stop-color="#a0762f"/>
      <stop offset="0.158" stop-color="#fdc778"/>
      <stop offset="0.505" stop-color="#ebcb88"/>
      <stop offset="0.854" stop-color="#bb914a"/>
      <stop offset="1" stop-color="#a0762f"/>
    </linearGradient>
  </defs>
  <g id="Rectangle_32783" data-name="Rectangle 32783" fill="#fff" stroke="#707070" stroke-width="1" opacity="0">
    <rect width="40" height="40" stroke="none"/>
    <rect x="0.5" y="0.5" width="39" height="39" fill="none"/>
  </g>
  <path id="regulation-icon" d="M939.929,1230.3a17.023,17.023,0,0,0-4.406-1.4.548.548,0,0,0-.321.05l-27.408,13.478a.545.545,0,0,0,.125,1.021c.025.005,1.4.306,3.025.695a7.144,7.144,0,0,0-4.387,6.762c0,3.944,2.915,7.152,6.5,7.152a6,6,0,0,0,3.183-.92c.009,0,.018-.006.027-.012l16.774-10.29a.572.572,0,0,0,.057-.035l9.594-5.885.025-.016c1.772-1.227,1.772-3.684,1.772-4.492C944.487,1233.855,942.911,1231.741,939.929,1230.3Zm-7.5,15.636-4.315,2.647a8.563,8.563,0,0,0,.885-3.807,8.222,8.222,0,0,0-2.573-5.957,8.736,8.736,0,0,0-4.226-2.257l5.435-2.672a6.474,6.474,0,0,1,4.72,2.124,7.655,7.655,0,0,1,1.931,5.2A6.576,6.576,0,0,1,932.426,1245.932Zm-12.04-8.482a7.645,7.645,0,0,1,5.28,2.151,7.14,7.14,0,0,1,2.24,5.172,7.391,7.391,0,0,1-2.07,5.166.481.481,0,0,0-.055.069l-3.914,2.4a9.767,9.767,0,0,0-.582-5.566,11.278,11.278,0,0,0-2.017-2.964,3.376,3.376,0,0,0,.04-2.817l2.636-1.4a.545.545,0,1,0-.51-.963l-3.126,1.656a.544.544,0,0,0-.2.788,2.28,2.28,0,0,1,.027,2.522.545.545,0,0,0,.069.68,10.382,10.382,0,0,1,2.086,2.95,9.365,9.365,0,0,1,.288,5.9l-1.816,1.115a7.684,7.684,0,0,0,.785-3.406,7.141,7.141,0,0,0-4.411-6.772.541.541,0,0,0-.05-.021l-.037-.011a5.765,5.765,0,0,0-.639-.189c-1.49-.426-3.426-.887-4.751-1.191Zm-12.74,13.456c0-3.343,2.426-6.062,5.408-6.062a4.817,4.817,0,0,1,1.07.12c.211.06.412.119.6.177a6.043,6.043,0,0,1,3.739,5.765c0,3.342-2.426,6.062-5.408,6.062S907.646,1254.249,907.646,1250.906ZM942.105,1240l-.7.429a7.426,7.426,0,0,0-.058-4.982,6.807,6.807,0,0,0-3.426-3.544.545.545,0,0,0-.59.115,1.815,1.815,0,0,1-1.306.646,1.389,1.389,0,0,1-.894-.457.545.545,0,0,0-.695-.135l-1.408.8a.545.545,0,0,0,.537.949l1.055-.6a2.354,2.354,0,0,0,1.329.531,2.637,2.637,0,0,0,1.855-.692,5.718,5.718,0,0,1,2.532,2.792,7.1,7.1,0,0,1-.423,5.492l-5.246,3.217a7.755,7.755,0,0,0,.707-3.35,8.741,8.741,0,0,0-2.216-5.932,7.54,7.54,0,0,0-3.768-2.253l6.134-3.016a16.224,16.224,0,0,1,3.93,1.272c2.616,1.268,3.942,2.994,3.942,5.13C943.4,1237.56,943.262,1239.184,942.105,1240Z" transform="translate(-905.521 -1223.504)" fill="url(#linear-gradient)"/>
</svg>
